<svg xmlns="http://www.w3.org/2000/svg" viewBox="0 0 432.77 351.57">
    <title>猫爪</title>
    <path d="M308.12,351.39c-67.25-26.64-57.17,6.95-106.42-1.1C143.27,323,143.91,363.64,102,347.58,40.79,305.49,94.55,268.45,126,234.3c30-48.22,58.79-88.69,113.05-71.13,37.45,12.32,47.87,49.63,73.41,80.88C384.92,290.58,355.28,352.15,308.12,351.39Z"
          transform="translate(0 0)"/>
    <path d="M134.54,0c-68,0-31.28,144.14,30,144.14S202.56,0,134.54,0Z" transform="translate(0 0)"/>
    <path d="M396.17,109.06c68,0,31.39,112-29.83,112S328.16,109.06,396.17,109.06Z" transform="translate(0 0)"/>
    <path d="M36.6,109.06c-68,0-31.39,112,29.83,112S104.61,109.06,36.6,109.06Z" transform="translate(0 0)"/>
    <path d="M298.23,0c68,0,31.28,144.14-30,144.14S230.21,0,298.23,0Z" transform="translate(0 0)"/>
</svg>