<?xml version="1.0" encoding="UTF-8"?>
<svg width="24" height="24" viewBox="0 0 48 48" xmlns="http://www.w3.org/2000/svg">
    <path d="M4 10a2 2 0 0 1 2 -2h36a2 2 0 0 1 2 2v28a2 2 0 0 1 -2 2h-36a2 2 0 0 1 -2 -2z M17 25C19.2091 25 21 23.2091 21 21C21 18.7909 19.2091 17 17 17C14.7909 17 13 18.7909 13 21C13 23.2091 14.7909 25 17 25Z M23 31C23 27.6863 20.3137 25 17 25C13.6863 25 11 27.6863 11 31 M28 20H36 M30 28H36"
          fill="none" stroke="currentColor" stroke-width="3.5"
          stroke-linecap="round" stroke-linejoin="round"/>
</svg>

