<?xml version="1.0" encoding="UTF-8"?>
<svg width="24" height="24" viewBox="0 0 48 48" fill="none" xmlns="http://www.w3.org/2000/svg">
    <path d="M16 7a3 3 0 0 1 3 -3h10a3 3 0 0 1 3 3v4a3 3 0 0 1 -3 3h-10a3 3 0 0 1 -3 -3z M6 32a12 12 0 0 1 12 -12h12a12 12 0 0 1 12 12v0a12 12 0 0 1 -12 12h-12a12 12 0 0 1 -12 -12z M6 32.9999C9.04225 29.1325 18 29.9999 24 31.9999C30 33.9999 38 36.9999 42 31.9999 M25 8.99999C25 9.55228 24.5523 9.99999 24 9.99999C23.4477 9.99999 23 9.55228 23 8.99999C23 8.44771 23.4477 7.99999 24 7.99999C24.5523 7.99999 25 8.44771 25 8.99999Z"
          fill="none" stroke="currentColor" stroke-width="3.5"
          stroke-linecap="round" stroke-linejoin="round"/>
</svg>