<svg xmlns="http://www.w3.org/2000/svg" viewBox="0 0 870.7 862.3">
    <title>strip</title>
    <path d="M931.8,276.3a43.3,43.3,0,0,1-7.1,25.1c-7.1,11-14.5,21.9-22.6,32.3-37,47.7-80,89.8-123.4,131.5-76.3,73.2-148.1,150.7-218.3,229.6C512.8,748.2,465.6,801.9,417.7,855c-23.6,26.2-48.5,51.3-72.9,76.9a86.2,86.2,0,0,1-7.6,7.2c-25.6,20.1-52.7,4-61.6-13.8-1.4-2.9-3.1-4.8-6.4-5.4-19.5-3.7-33.6-14-40.6-33.1a4.8,4.8,0,0,0-4-2.4c-8.1,1.4-15.7-.5-22.8-3.9a150.8,150.8,0,0,1-19.7-10.8c-9.2-6-15-14.6-16.3-25.7-.5-4.2-1.9-5.8-6.3-6.4a73.4,73.4,0,0,1-29.9-10.5c-7.7-4.8-13.9-10.9-17.9-19-1.4-2.9-3.3-3.8-6.4-4.4-7.2-1.4-14.6-2.8-21.1-5.8-22.3-10.2-29.5-35.3-16.8-56.3A39.2,39.2,0,0,0,69,738c3.1-6.9,5.2-14.6,9.6-20.6,43.3-59.8,86.1-119.9,130.8-178.7,42.7-56.1,90.2-108.3,137.5-160.5A1641.4,1641.4,0,0,1,612.4,142.1c20.1-14.3,39.6-29.3,59.5-43.9a89,89,0,0,1,9.6-6.4c19.7-11,39.8-5.9,52.1,13.1,4.5,7,4.5,6.8,13,5.6,19.2-2.8,36.2,1.4,47.8,18,4.4,6.4,6.7,14.4,9.3,21.8,1.2,3.4,2.4,4.8,6.1,5a188.7,188.7,0,0,1,22.3,2.8c22,4.2,38.2,15.4,44.2,38.1,2.2,8.3,5.2,15.5,14.1,18.5a9.3,9.3,0,0,1,3.2,2.4c9.6,9.4,19.5,18.5,28.6,28.4C929.7,253.7,931.9,264.3,931.8,276.3Zm-86,11.7-6.2-3.1c-15.2-8-25.7-19.9-30-36.8-1-4.1-.6-10-3.1-11.9s-8.7-1.1-13.1-1.3c-26.8-1.7-44.8-15.4-53.6-40.8a33.7,33.7,0,0,1-1-3.4c-.6-2.5-1.8-3.7-4.6-3a33.1,33.1,0,0,1-5.5.8c-14.8,1.7-29,.1-40.9-10-2.5-2.1-3.8-.8-5.5.6q-25.8,21-51.5,42.1c-59.1,49.1-117.2,99.5-171,154.4-83.7,85.3-162.3,174.9-232.5,271.7q-30.9,42.8-62.1,85.3c-1.9,2.7-1.8,4.3.2,7.2,3.8,5.3,7.8,10.9,9.3,16.9,2,8.2,6.3,10.2,13.8,10.5,14.1.7,26.6,5.8,35.2,17.3,4.1,5.3,6.3,12,9.6,17.9.8,1.4,2.7,3.1,4,3,23.5-1.9,40,9,50,29.3,4.6,9.1,10,15.3,19.5,18.8,3.1,1.1,4.6,1,6.7-1.4,33.2-36.5,67-72.4,99.5-109.6C491,653.3,570.1,565.1,653.7,481c50.5-50.8,101.7-100.9,152.4-151.5C819.4,316.2,832.2,302.3,845.8,288Z"
          transform="translate(-61.2 -86.1)"/>
    <path d="M692.1,222a50.6,50.6,0,0,1,27.9,8.5c18.4,12.3,36.9,24.4,52.1,40.9,12.8,13.8,15,32.9,5.1,47.7s-28.7,19.6-46.3,12.5c-25.7-10.4-46.3-28-65.1-47.7-8.3-8.7-12.2-19.5-10.3-31.7C658.3,234,673.1,222,692.1,222Z"
          transform="translate(-61.2 -86.1)"/>
    <path d="M522.7,582.7c-13.6.8-24.6-8.8-26.4-22.6-.5-4.1.5-8.2.5-12.4a76.7,76.7,0,0,0-.6-12.7c-1.9-11.5-5.2-22.8-6.1-34.3-1.4-17.6,12.4-34.4,32.2-35.7,7.4-.5,15,1.7,22.6,2.3,9.7.8,19.1,3.9,29.5.9s19.2-.1,26.5,7.6c5.7,6,8.8,13.1,5.9,21.4s-7.4,13.5-15.7,16.2c-6.1,2-10.9,4.9-13.2,12.4-4,13-13.2,22.1-26.5,26.4-3.6,1.2-5.1,3.3-6.6,6.6a116.7,116.7,0,0,1-9.7,17.7C532.1,580.9,527.3,583.3,522.7,582.7Z"
          transform="translate(-61.2 -86.1)"/>
    <path d="M347,756.1c.1,27.6-23.4,43.5-47.5,35a55.2,55.2,0,0,1-14.3-7.8c-13.8-10.3-27.3-20.8-40.7-31.5a57.3,57.3,0,0,1-10-10.3c-10.2-13.6-10.8-29.7-2.1-42.4s24.4-17.7,40-13.2c5.9,1.7,12.1,4.2,17,8q23.3,18,45.4,37.4C343,738.5,346.8,748.3,347,756.1Z"
          transform="translate(-61.2 -86.1)"/>
    <path d="M487,385.6c3.9,2.2,8.4,3.7,11.7,6.7,10.1,9,16.5,20.8,21.6,33.2,3,7.1,1.4,14-4.1,19.8-8.1,8.8-17.6,11.4-26.7,7a10.7,10.7,0,0,1-3.8-2.4c-9-10.9-18.2-21.8-21.5-36s7.3-27.1,22.1-27Z"
          transform="translate(-61.2 -86.1)"/>
    <path d="M478.1,473.4c-1,19.6-16.1,32.9-32.3,24.5a307.8,307.8,0,0,1-26.7-15.4c-11.5-7.5-10.6-18.9-6.5-27.2s15.2-13.5,26.4-10.5,23.2,10.7,33.2,18.6C475.6,466.1,477,471.3,478.1,473.4Z"
          transform="translate(-61.2 -86.1)"/>
    <path d="M415.2,535c0-11,10.7-20,24.8-19.5a48.1,48.1,0,0,1,21.9,5.6c9.2,5,12.8,14.2,9.8,25s-14.2,16.8-22.2,14.9-15.6-3.4-22.9-6.4S415.1,544.9,415.2,535Z"
          transform="translate(-61.2 -86.1)"/>
    <path d="M535.4,409.1c-.2-8.9,5-15.2,13.1-19.3,6.5-3.3,13.3-2.6,19.3,1.7,2.3,1.6,4.6,3.8,5.6,6.3,3.1,7.4,6.2,15,8.1,22.8,2.7,10.6-2.9,19.2-14.2,23.7a20.2,20.2,0,0,1-24.7-8.3C538.3,429.3,535.2,417.8,535.4,409.1Z"
          transform="translate(-61.2 -86.1)"/>
</svg>